# xmcd
#
# Track frame offsets:
#	150
#	17004
#	34027
#	52749
#	70157
#	83559
#	95250
#	112803
#	125783
#	142564
#	157499
#	175193
#
# Disc length: 2546 seconds
#
# Revision: 1
# Processed by: cddbd v1.5.2PL0 Copyright (c) Steve Scherf et al.
# Submitted via: audiograbber 1.83.01
#
DISCID=8e09f00c
DTITLE=Caitlin Canty - Reckless Skyline
DYEAR=2015
DGENRE=Folk-Rock
TTITLE0=Get Up
TTITLE1=True
TTITLE2=One Man
TTITLE3=My Love For You Will Not Fade
TTITLE4=The Brightest Day
TTITLE5=Enough About Hard Times
TTITLE6=Wore Your Ring
TTITLE7=My Baby Don't Care
TTITLE8=Southern Man
TTITLE9=I Never
TTITLE10=Unknown Legend
TTITLE11=Cold Habit
EXTD=Fourht release for this artist.
EXTT0=
EXTT1=
EXTT2=
EXTT3=
EXTT4=
EXTT5=
EXTT6=
EXTT7=
EXTT8=
EXTT9=
EXTT10=
EXTT11=
PLAYORDER=
